<svg xmlns="http://www.w3.org/2000/svg" viewBox="0 0 47.98 70.67"><defs><style>.cls-1{fill:#da2627;}.cls-2{fill:#fff;}</style></defs><title>Fichier 1</title><g id="Calque_2" data-name="Calque 2"><g id="Calque_1-2" data-name="Calque 1"><path class="cls-1" d="M48,24.79A22.67,22.67,0,0,1,45,35.3L25.52,69.17c-1.15,2-1.74,2-2.92,0C16.12,57.84,9.53,46.62,3.22,35.24-1.4,26.93-1,18.48,4.23,10.6S17.17-.82,26.62.16C39,1.44,48,11.53,48,24.79Z"/><path class="cls-2" d="M24.13,15.07c-2.82,0-4.93-.7-5.63-1.41s-7-.7-7.73,4.92S13.58,27,15,29.83a22.65,22.65,0,0,0,1.83,3.32h.31l.43-.53c1.41-1.4,3.75-1.73,7.27-1.73A9.15,9.15,0,0,1,31.16,33l.48-.47.31-.3a22.47,22.47,0,0,0,1.22-2.4c1.41-2.81,4.92-5.62,4.22-11.25s-7-5.62-7.73-4.92S26.85,15.07,24,15.07"/></g></g></svg>